<svg xmlns="http://www.w3.org/2000/svg" viewBox="0 0 300 200" width="100%" height="100%">
  <defs>
    <radialGradient id="bg" cx="50%" cy="50%" r="50%">
      <stop offset="0%" stop-color="#FFFFFF" />
      <stop offset="100%" stop-color="#FFF4E6" />
    </radialGradient>
  </defs>
  <rect width="300" height="200" rx="16" fill="url(#bg)" />
  <!-- Basket/Plate -->
  <path d="M50 140 L250 140 L230 160 L70 160 Z" fill="#D1D5DB" />
  <!-- Fries Stack (Back) -->
  <g transform="translate(70, 60)">
    <rect x="10" y="10" width="10" height="70" rx="2" fill="#F59E0B" transform="rotate(-10, 15, 80)" />
    <rect x="22" y="5" width="10" height="75" rx="2" fill="#FBBF24" transform="rotate(5, 27, 80)" />
    <rect x="34" y="15" width="10" height="65" rx="2" fill="#F59E0B" transform="rotate(-5, 39, 80)" />
    <rect x="46" y="8" width="10" height="72" rx="2" fill="#FBBF24" transform="rotate(15, 51, 80)" />
  </g>
  <!-- Crispy Wings (Front) -->
  <g transform="translate(120, 70)">
    <path d="M10 40 C10 20 40 10 65 25 C90 40 100 70 80 80 C60 90 30 80 10 40 Z" fill="#D97706" />
    <path d="M50 30 C50 10 80 0 105 15 C130 30 140 60 120 70 C100 80 70 70 50 30 Z" fill="#C25E00" />
  </g>
</svg>